<svg width="132" height="130" viewBox="0 0 132 130" fill="none" xmlns="http://www.w3.org/2000/svg">
<path d="M131 65C131 100.411 101.898 129.116 66 129.116M131 65C131 29.5893 101.898 0.884368 66 0.884368M131 65H66.2922M66 129.116C30.1016 129.116 1 100.411 1 65C1 29.5893 30.1016 0.884368 66 0.884368M66 129.116V0.884368" stroke="#0A2926" stroke-width="1.15733" stroke-miterlimit="10"/>
<path d="M65.5578 71.6327C62.8537 84.6267 51.8449 94.696 38.1428 96.3946" stroke="#0A2926" stroke-width="1.15733" stroke-miterlimit="10" stroke-dasharray="4.6 4.6"/>
<path d="M27.5307 96.3946C14.1292 93.7789 3.70418 82.7497 1.8844 68.9796" stroke="#0A2926" stroke-width="1.15733" stroke-miterlimit="10" stroke-dasharray="4.6 4.6"/>
<path d="M1.8844 58.3673C4.58845 45.3745 15.5973 35.304 29.2994 33.6054" stroke="#0A2926" stroke-width="1.15733" stroke-miterlimit="10" stroke-dasharray="4.6 4.6"/>
<path d="M39.9116 33.6055C53.3131 36.2224 63.7381 47.2503 65.5579 61.0204" stroke="#0A2926" stroke-width="1.15733" stroke-miterlimit="10" stroke-dasharray="4.6 4.6"/>
<path d="M35.7614 96.3312C35.0864 96.3726 34.4068 96.3946 33.7211 96.3946C33.0355 96.3946 32.3558 96.3726 31.6809 96.3312M1.95426 67.0981C1.90808 66.404 1.8844 65.705 1.8844 65C1.8844 64.295 1.90808 63.596 1.95426 62.9019M31.6809 33.6688C32.3558 33.6262 33.0355 33.6054 33.7211 33.6054C34.4068 33.6054 35.0864 33.6262 35.7614 33.6688M65.488 62.9019C65.5342 63.596 65.5579 64.295 65.5579 65C65.5579 65.705 65.5342 66.404 65.488 67.0981" stroke="#0A2926" stroke-width="1.15733" stroke-miterlimit="10"/>
<path d="M66.4421 6.02868e-06V130" stroke="#0A2926" stroke-width="1.15733" stroke-miterlimit="10"/>
</svg>
